solid cylinder_half
   facet normal 1.161583e-001 0.000000e+000 9.932307e-001
      outer loop
         vertex 6.250000e+001 7.500000e+002 1.250000e+002
         vertex 7.335300e+001 0.000000e+000 1.240505e+002
         vertex 7.335300e+001 7.500000e+002 1.240505e+002
      endloop
   endfacet
   facet normal 2.305519e-001 0.000000e+000 9.730600e-001
      outer loop
         vertex 7.335300e+001 7.500000e+002 1.240505e+002
         vertex 7.335300e+001 0.000000e+000 1.240505e+002
         vertex 8.387626e+001 0.000000e+000 1.212308e+002
      endloop
   endfacet
   facet normal 2.868663e-001 0.000000e+000 9.579706e-001
      outer loop
         vertex 7.335300e+001 7.500000e+002 1.240505e+002
         vertex 8.387626e+001 0.000000e+000 1.212308e+002
         vertex 8.387626e+001 7.500000e+002 1.212308e+002
      endloop
   endfacet
   facet normal 3.960194e-001 0.000000e+000 9.182422e-001
      outer loop
         vertex 8.387626e+001 7.500000e+002 1.212308e+002
         vertex 8.387626e+001 0.000000e+000 1.212308e+002
         vertex 9.375000e+001 0.000000e+000 1.166266e+002
      endloop
   endfacet
   facet normal 4.488580e-001 0.000000e+000 8.936031e-001
      outer loop
         vertex 8.387626e+001 7.500000e+002 1.212308e+002
         vertex 9.375000e+001 0.000000e+000 1.166266e+002
         vertex 9.375000e+001 7.500000e+002 1.166266e+002
      endloop
   endfacet
   facet normal 5.494540e-001 0.000000e+000 8.355240e-001
      outer loop
         vertex 9.375000e+001 7.500000e+002 1.166266e+002
         vertex 9.375000e+001 0.000000e+000 1.166266e+002
         vertex 1.026742e+002 0.000000e+000 1.103778e+002
      endloop
   endfacet
   facet normal 5.972114e-001 0.000000e+000 8.020839e-001
      outer loop
         vertex 9.375000e+001 7.500000e+002 1.166266e+002
         vertex 1.026742e+002 0.000000e+000 1.103778e+002
         vertex 1.026742e+002 7.500000e+002 1.103778e+002
      endloop
   endfacet
   facet normal 6.861938e-001 0.000000e+000 7.274188e-001
      outer loop
         vertex 1.026742e+002 7.500000e+002 1.103778e+002
         vertex 1.026742e+002 0.000000e+000 1.103778e+002
         vertex 1.103778e+002 0.000000e+000 1.026742e+002
      endloop
   endfacet
   facet normal 7.274188e-001 0.000000e+000 6.861938e-001
      outer loop
         vertex 1.026742e+002 7.500000e+002 1.103778e+002
         vertex 1.103778e+002 0.000000e+000 1.026742e+002
         vertex 1.103778e+002 7.500000e+002 1.026742e+002
      endloop
   endfacet
   facet normal 8.020839e-001 0.000000e+000 5.972114e-001
      outer loop
         vertex 1.103778e+002 7.500000e+002 1.026742e+002
         vertex 1.103778e+002 0.000000e+000 1.026742e+002
         vertex 1.166266e+002 0.000000e+000 9.375000e+001
      endloop
   endfacet
   facet normal 8.355240e-001 0.000000e+000 5.494540e-001
      outer loop
         vertex 1.103778e+002 7.500000e+002 1.026742e+002
         vertex 1.166266e+002 0.000000e+000 9.375000e+001
         vertex 1.166266e+002 7.500000e+002 9.375000e+001
      endloop
   endfacet
   facet normal 8.936031e-001 0.000000e+000 4.488580e-001
      outer loop
         vertex 1.166266e+002 7.500000e+002 9.375000e+001
         vertex 1.166266e+002 0.000000e+000 9.375000e+001
         vertex 1.212308e+002 0.000000e+000 8.387626e+001
      endloop
   endfacet
   facet normal 9.182422e-001 0.000000e+000 3.960194e-001
      outer loop
         vertex 1.166266e+002 7.500000e+002 9.375000e+001
         vertex 1.212308e+002 0.000000e+000 8.387626e+001
         vertex 1.212308e+002 7.500000e+002 8.387626e+001
      endloop
   endfacet
   facet normal 9.579706e-001 0.000000e+000 2.868663e-001
      outer loop
         vertex 1.212308e+002 7.500000e+002 8.387626e+001
         vertex 1.212308e+002 0.000000e+000 8.387626e+001
         vertex 1.240505e+002 0.000000e+000 7.335300e+001
      endloop
   endfacet
   facet normal 9.730600e-001 0.000000e+000 2.305519e-001
      outer loop
         vertex 1.212308e+002 7.500000e+002 8.387626e+001
         vertex 1.240505e+002 0.000000e+000 7.335300e+001
         vertex 1.240505e+002 7.500000e+002 7.335300e+001
      endloop
   endfacet
   facet normal 9.932307e-001 0.000000e+000 1.161583e-001
      outer loop
         vertex 1.240505e+002 7.500000e+002 7.335300e+001
         vertex 1.240505e+002 0.000000e+000 7.335300e+001
         vertex 1.250000e+002 0.000000e+000 6.250000e+001
      endloop
   endfacet
   facet normal 9.983120e-001 0.000000e+000 5.807914e-002
      outer loop
         vertex 1.240505e+002 7.500000e+002 7.335300e+001
         vertex 1.250000e+002 0.000000e+000 6.250000e+001
         vertex 1.250000e+002 7.500000e+002 6.250000e+001
      endloop
   endfacet
   facet normal 9.983120e-001 0.000000e+000 -5.807914e-002
      outer loop
         vertex 1.250000e+002 7.500000e+002 6.250000e+001
         vertex 1.250000e+002 0.000000e+000 6.250000e+001
         vertex 1.240505e+002 0.000000e+000 5.164699e+001
      endloop
   endfacet
   facet normal 9.932307e-001 0.000000e+000 -1.161583e-001
      outer loop
         vertex 1.250000e+002 7.500000e+002 6.250000e+001
         vertex 1.240505e+002 0.000000e+000 5.164699e+001
         vertex 1.240505e+002 7.500000e+002 5.164699e+001
      endloop
   endfacet
   facet normal 9.730600e-001 0.000000e+000 -2.305519e-001
      outer loop
         vertex 1.240505e+002 7.500000e+002 5.164699e+001
         vertex 1.240505e+002 0.000000e+000 5.164699e+001
         vertex 1.212308e+002 0.000000e+000 4.112374e+001
      endloop
   endfacet
   facet normal 9.579706e-001 0.000000e+000 -2.868663e-001
      outer loop
         vertex 1.240505e+002 7.500000e+002 5.164699e+001
         vertex 1.212308e+002 0.000000e+000 4.112374e+001
         vertex 1.212308e+002 7.500000e+002 4.112374e+001
      endloop
   endfacet
   facet normal 9.182422e-001 0.000000e+000 -3.960194e-001
      outer loop
         vertex 1.212308e+002 7.500000e+002 4.112374e+001
         vertex 1.212308e+002 0.000000e+000 4.112374e+001
         vertex 1.166266e+002 0.000000e+000 3.125000e+001
      endloop
   endfacet
   facet normal 8.936031e-001 0.000000e+000 -4.488580e-001
      outer loop
         vertex 1.212308e+002 7.500000e+002 4.112374e+001
         vertex 1.166266e+002 0.000000e+000 3.125000e+001
         vertex 1.166266e+002 7.500000e+002 3.125000e+001
      endloop
   endfacet
   facet normal 8.355240e-001 0.000000e+000 -5.494540e-001
      outer loop
         vertex 1.166266e+002 7.500000e+002 3.125000e+001
         vertex 1.166266e+002 0.000000e+000 3.125000e+001
         vertex 1.103778e+002 0.000000e+000 2.232577e+001
      endloop
   endfacet
   facet normal 8.020839e-001 0.000000e+000 -5.972114e-001
      outer loop
         vertex 1.166266e+002 7.500000e+002 3.125000e+001
         vertex 1.103778e+002 0.000000e+000 2.232577e+001
         vertex 1.103778e+002 7.500000e+002 2.232577e+001
      endloop
   endfacet
   facet normal 7.274188e-001 0.000000e+000 -6.861938e-001
      outer loop
         vertex 1.103778e+002 7.500000e+002 2.232577e+001
         vertex 1.103778e+002 0.000000e+000 2.232577e+001
         vertex 1.026742e+002 0.000000e+000 1.462222e+001
      endloop
   endfacet
   facet normal 6.861938e-001 0.000000e+000 -7.274188e-001
      outer loop
         vertex 1.103778e+002 7.500000e+002 2.232577e+001
         vertex 1.026742e+002 0.000000e+000 1.462222e+001
         vertex 1.026742e+002 7.500000e+002 1.462222e+001
      endloop
   endfacet
   facet normal 5.972114e-001 0.000000e+000 -8.020839e-001
      outer loop
         vertex 1.026742e+002 7.500000e+002 1.462222e+001
         vertex 1.026742e+002 0.000000e+000 1.462222e+001
         vertex 9.375000e+001 0.000000e+000 8.373413e+000
      endloop
   endfacet
   facet normal 5.494540e-001 0.000000e+000 -8.355240e-001
      outer loop
         vertex 1.026742e+002 7.500000e+002 1.462222e+001
         vertex 9.375000e+001 0.000000e+000 8.373413e+000
         vertex 9.375000e+001 7.500000e+002 8.373413e+000
      endloop
   endfacet
   facet normal 4.488580e-001 0.000000e+000 -8.936031e-001
      outer loop
         vertex 9.375000e+001 7.500000e+002 8.373413e+000
         vertex 9.375000e+001 0.000000e+000 8.373413e+000
         vertex 8.387626e+001 0.000000e+000 3.769212e+000
      endloop
   endfacet
   facet normal 3.960194e-001 0.000000e+000 -9.182422e-001
      outer loop
         vertex 9.375000e+001 7.500000e+002 8.373413e+000
         vertex 8.387626e+001 0.000000e+000 3.769212e+000
         vertex 8.387626e+001 7.500000e+002 3.769212e+000
      endloop
   endfacet
   facet normal 2.868663e-001 0.000000e+000 -9.579706e-001
      outer loop
         vertex 8.387626e+001 7.500000e+002 3.769212e+000
         vertex 8.387626e+001 0.000000e+000 3.769212e+000
         vertex 7.335300e+001 0.000000e+000 9.495169e-001
      endloop
   endfacet
   facet normal 2.305519e-001 0.000000e+000 -9.730600e-001
      outer loop
         vertex 8.387626e+001 7.500000e+002 3.769212e+000
         vertex 7.335300e+001 0.000000e+000 9.495169e-001
         vertex 7.335300e+001 7.500000e+002 9.495169e-001
      endloop
   endfacet
   facet normal 1.161583e-001 0.000000e+000 -9.932307e-001
      outer loop
         vertex 7.335300e+001 7.500000e+002 9.495169e-001
         vertex 7.335300e+001 0.000000e+000 9.495169e-001
         vertex 6.250000e+001 0.000000e+000 -6.938894e-015
      endloop
   endfacet
   facet normal 5.807914e-002 0.000000e+000 -9.983120e-001
      outer loop
         vertex 7.335300e+001 7.500000e+002 9.495169e-001
         vertex 6.250000e+001 0.000000e+000 -6.938894e-015
         vertex 6.250000e+001 7.500000e+002 -6.938894e-015
      endloop
   endfacet
   facet normal -5.807914e-002 0.000000e+000 -9.983120e-001
      outer loop
         vertex 6.250000e+001 7.500000e+002 -6.938894e-015
         vertex 6.250000e+001 0.000000e+000 -6.938894e-015
         vertex 5.164699e+001 0.000000e+000 9.495169e-001
      endloop
   endfacet
   facet normal -1.161583e-001 0.000000e+000 -9.932307e-001
      outer loop
         vertex 6.250000e+001 7.500000e+002 -6.938894e-015
         vertex 5.164699e+001 0.000000e+000 9.495169e-001
         vertex 5.164699e+001 7.500000e+002 9.495169e-001
      endloop
   endfacet
   facet normal -2.305519e-001 0.000000e+000 -9.730600e-001
      outer loop
         vertex 5.164699e+001 7.500000e+002 9.495169e-001
         vertex 5.164699e+001 0.000000e+000 9.495169e-001
         vertex 4.112374e+001 0.000000e+000 3.769212e+000
      endloop
   endfacet
   facet normal -2.868663e-001 0.000000e+000 -9.579706e-001
      outer loop
         vertex 5.164699e+001 7.500000e+002 9.495169e-001
         vertex 4.112374e+001 0.000000e+000 3.769212e+000
         vertex 4.112374e+001 7.500000e+002 3.769212e+000
      endloop
   endfacet
   facet normal -3.960194e-001 0.000000e+000 -9.182422e-001
      outer loop
         vertex 4.112374e+001 7.500000e+002 3.769212e+000
         vertex 4.112374e+001 0.000000e+000 3.769212e+000
         vertex 3.125000e+001 0.000000e+000 8.373413e+000
      endloop
   endfacet
   facet normal -4.488580e-001 0.000000e+000 -8.936031e-001
      outer loop
         vertex 4.112374e+001 7.500000e+002 3.769212e+000
         vertex 3.125000e+001 0.000000e+000 8.373413e+000
         vertex 3.125000e+001 7.500000e+002 8.373413e+000
      endloop
   endfacet
   facet normal -5.494540e-001 0.000000e+000 -8.355240e-001
      outer loop
         vertex 3.125000e+001 7.500000e+002 8.373413e+000
         vertex 3.125000e+001 0.000000e+000 8.373413e+000
         vertex 2.232577e+001 0.000000e+000 1.462222e+001
      endloop
   endfacet
   facet normal -5.972114e-001 0.000000e+000 -8.020839e-001
      outer loop
         vertex 3.125000e+001 7.500000e+002 8.373413e+000
         vertex 2.232577e+001 0.000000e+000 1.462222e+001
         vertex 2.232577e+001 7.500000e+002 1.462222e+001
      endloop
   endfacet
   facet normal -6.861938e-001 0.000000e+000 -7.274188e-001
      outer loop
         vertex 2.232577e+001 7.500000e+002 1.462222e+001
         vertex 2.232577e+001 0.000000e+000 1.462222e+001
         vertex 1.462222e+001 0.000000e+000 2.232577e+001
      endloop
   endfacet
   facet normal -7.274188e-001 0.000000e+000 -6.861938e-001
      outer loop
         vertex 2.232577e+001 7.500000e+002 1.462222e+001
         vertex 1.462222e+001 0.000000e+000 2.232577e+001
         vertex 1.462222e+001 7.500000e+002 2.232577e+001
      endloop
   endfacet
   facet normal -8.020839e-001 0.000000e+000 -5.972114e-001
      outer loop
         vertex 1.462222e+001 7.500000e+002 2.232577e+001
         vertex 1.462222e+001 0.000000e+000 2.232577e+001
         vertex 8.373413e+000 0.000000e+000 3.125000e+001
      endloop
   endfacet
   facet normal -8.355240e-001 0.000000e+000 -5.494540e-001
      outer loop
         vertex 1.462222e+001 7.500000e+002 2.232577e+001
         vertex 8.373413e+000 0.000000e+000 3.125000e+001
         vertex 8.373413e+000 7.500000e+002 3.125000e+001
      endloop
   endfacet
   facet normal -8.936031e-001 0.000000e+000 -4.488580e-001
      outer loop
         vertex 8.373413e+000 7.500000e+002 3.125000e+001
         vertex 8.373413e+000 0.000000e+000 3.125000e+001
         vertex 3.769212e+000 0.000000e+000 4.112374e+001
      endloop
   endfacet
   facet normal -9.182422e-001 0.000000e+000 -3.960194e-001
      outer loop
         vertex 8.373413e+000 7.500000e+002 3.125000e+001
         vertex 3.769212e+000 0.000000e+000 4.112374e+001
         vertex 3.769212e+000 7.500000e+002 4.112374e+001
      endloop
   endfacet
   facet normal -9.579706e-001 0.000000e+000 -2.868663e-001
      outer loop
         vertex 3.769212e+000 7.500000e+002 4.112374e+001
         vertex 3.769212e+000 0.000000e+000 4.112374e+001
         vertex 9.495169e-001 0.000000e+000 5.164699e+001
      endloop
   endfacet
   facet normal -9.730600e-001 0.000000e+000 -2.305519e-001
      outer loop
         vertex 3.769212e+000 7.500000e+002 4.112374e+001
         vertex 9.495169e-001 0.000000e+000 5.164699e+001
         vertex 9.495169e-001 7.500000e+002 5.164699e+001
      endloop
   endfacet
   facet normal -9.932307e-001 0.000000e+000 -1.161583e-001
      outer loop
         vertex 9.495169e-001 7.500000e+002 5.164699e+001
         vertex 9.495169e-001 0.000000e+000 5.164699e+001
         vertex 0.000000e+000 0.000000e+000 6.250000e+001
      endloop
   endfacet
   facet normal -9.983120e-001 0.000000e+000 -5.807914e-002
      outer loop
         vertex 9.495169e-001 7.500000e+002 5.164699e+001
         vertex 0.000000e+000 0.000000e+000 6.250000e+001
         vertex 0.000000e+000 7.500000e+002 6.250000e+001
      endloop
   endfacet
   facet normal -9.983120e-001 0.000000e+000 5.807914e-002
      outer loop
         vertex 0.000000e+000 7.500000e+002 6.250000e+001
         vertex 0.000000e+000 0.000000e+000 6.250000e+001
         vertex 9.495169e-001 0.000000e+000 7.335300e+001
      endloop
   endfacet
   facet normal -9.932307e-001 0.000000e+000 1.161583e-001
      outer loop
         vertex 0.000000e+000 7.500000e+002 6.250000e+001
         vertex 9.495169e-001 0.000000e+000 7.335300e+001
         vertex 9.495169e-001 7.500000e+002 7.335300e+001
      endloop
   endfacet
   facet normal -9.730600e-001 0.000000e+000 2.305519e-001
      outer loop
         vertex 9.495169e-001 7.500000e+002 7.335300e+001
         vertex 9.495169e-001 0.000000e+000 7.335300e+001
         vertex 3.769212e+000 0.000000e+000 8.387626e+001
      endloop
   endfacet
   facet normal -9.579706e-001 0.000000e+000 2.868663e-001
      outer loop
         vertex 9.495169e-001 7.500000e+002 7.335300e+001
         vertex 3.769212e+000 0.000000e+000 8.387626e+001
         vertex 3.769212e+000 7.500000e+002 8.387626e+001
      endloop
   endfacet
   facet normal -9.182422e-001 0.000000e+000 3.960194e-001
      outer loop
         vertex 3.769212e+000 7.500000e+002 8.387626e+001
         vertex 3.769212e+000 0.000000e+000 8.387626e+001
         vertex 8.373413e+000 0.000000e+000 9.375000e+001
      endloop
   endfacet
   facet normal -8.936031e-001 0.000000e+000 4.488580e-001
      outer loop
         vertex 3.769212e+000 7.500000e+002 8.387626e+001
         vertex 8.373413e+000 0.000000e+000 9.375000e+001
         vertex 8.373413e+000 7.500000e+002 9.375000e+001
      endloop
   endfacet
   facet normal -8.355240e-001 0.000000e+000 5.494540e-001
      outer loop
         vertex 8.373413e+000 7.500000e+002 9.375000e+001
         vertex 8.373413e+000 0.000000e+000 9.375000e+001
         vertex 1.462222e+001 0.000000e+000 1.026742e+002
      endloop
   endfacet
   facet normal -8.020839e-001 0.000000e+000 5.972114e-001
      outer loop
         vertex 8.373413e+000 7.500000e+002 9.375000e+001
         vertex 1.462222e+001 0.000000e+000 1.026742e+002
         vertex 1.462222e+001 7.500000e+002 1.026742e+002
      endloop
   endfacet
   facet normal -7.274188e-001 0.000000e+000 6.861938e-001
      outer loop
         vertex 1.462222e+001 7.500000e+002 1.026742e+002
         vertex 1.462222e+001 0.000000e+000 1.026742e+002
         vertex 2.232577e+001 0.000000e+000 1.103778e+002
      endloop
   endfacet
   facet normal -6.861938e-001 0.000000e+000 7.274188e-001
      outer loop
         vertex 1.462222e+001 7.500000e+002 1.026742e+002
         vertex 2.232577e+001 0.000000e+000 1.103778e+002
         vertex 2.232577e+001 7.500000e+002 1.103778e+002
      endloop
   endfacet
   facet normal -5.972114e-001 0.000000e+000 8.020839e-001
      outer loop
         vertex 2.232577e+001 7.500000e+002 1.103778e+002
         vertex 2.232577e+001 0.000000e+000 1.103778e+002
         vertex 3.125000e+001 0.000000e+000 1.166266e+002
      endloop
   endfacet
   facet normal -5.494540e-001 0.000000e+000 8.355240e-001
      outer loop
         vertex 2.232577e+001 7.500000e+002 1.103778e+002
         vertex 3.125000e+001 0.000000e+000 1.166266e+002
         vertex 3.125000e+001 7.500000e+002 1.166266e+002
      endloop
   endfacet
   facet normal -4.488580e-001 0.000000e+000 8.936031e-001
      outer loop
         vertex 3.125000e+001 7.500000e+002 1.166266e+002
         vertex 3.125000e+001 0.000000e+000 1.166266e+002
         vertex 4.112374e+001 0.000000e+000 1.212308e+002
      endloop
   endfacet
   facet normal -3.960194e-001 0.000000e+000 9.182422e-001
      outer loop
         vertex 3.125000e+001 7.500000e+002 1.166266e+002
         vertex 4.112374e+001 0.000000e+000 1.212308e+002
         vertex 4.112374e+001 7.500000e+002 1.212308e+002
      endloop
   endfacet
   facet normal -2.868663e-001 0.000000e+000 9.579706e-001
      outer loop
         vertex 4.112374e+001 7.500000e+002 1.212308e+002
         vertex 4.112374e+001 0.000000e+000 1.212308e+002
         vertex 5.164699e+001 0.000000e+000 1.240505e+002
      endloop
   endfacet
   facet normal -2.305519e-001 0.000000e+000 9.730600e-001
      outer loop
         vertex 4.112374e+001 7.500000e+002 1.212308e+002
         vertex 5.164699e+001 0.000000e+000 1.240505e+002
         vertex 5.164699e+001 7.500000e+002 1.240505e+002
      endloop
   endfacet
   facet normal -1.161583e-001 0.000000e+000 9.932307e-001
      outer loop
         vertex 5.164699e+001 7.500000e+002 1.240505e+002
         vertex 5.164699e+001 0.000000e+000 1.240505e+002
         vertex 6.250000e+001 0.000000e+000 1.250000e+002
      endloop
   endfacet
   facet normal -5.807914e-002 0.000000e+000 9.983120e-001
      outer loop
         vertex 5.164699e+001 7.500000e+002 1.240505e+002
         vertex 6.250000e+001 0.000000e+000 1.250000e+002
         vertex 6.250000e+001 7.500000e+002 1.250000e+002
      endloop
   endfacet
   facet normal 5.807914e-002 0.000000e+000 9.983120e-001
      outer loop
         vertex 6.250000e+001 7.500000e+002 1.250000e+002
         vertex 6.250000e+001 0.000000e+000 1.250000e+002
         vertex 7.335300e+001 0.000000e+000 1.240505e+002
      endloop
   endfacet
   facet normal 0.000000e+000 -1.000000e+000 0.000000e+000
      outer loop
         vertex 8.387626e+001 0.000000e+000 1.212308e+002
         vertex 7.335300e+001 0.000000e+000 1.240505e+002
         vertex 6.250000e+001 0.000000e+000 6.250000e+001
      endloop
   endfacet
   facet normal 0.000000e+000 -1.000000e+000 0.000000e+000
      outer loop
         vertex 6.250000e+001 0.000000e+000 6.250000e+001
         vertex 7.335300e+001 0.000000e+000 1.240505e+002
         vertex 6.250000e+001 0.000000e+000 1.250000e+002
      endloop
   endfacet
   facet normal 0.000000e+000 -1.000000e+000 0.000000e+000
      outer loop
         vertex 6.250000e+001 0.000000e+000 6.250000e+001
         vertex 6.250000e+001 0.000000e+000 1.250000e+002
         vertex 5.164699e+001 0.000000e+000 1.240505e+002
      endloop
   endfacet
   facet normal 0.000000e+000 -1.000000e+000 0.000000e+000
      outer loop
         vertex 1.103778e+002 0.000000e+000 1.026742e+002
         vertex 1.026742e+002 0.000000e+000 1.103778e+002
         vertex 6.250000e+001 0.000000e+000 6.250000e+001
      endloop
   endfacet
   facet normal 0.000000e+000 -1.000000e+000 0.000000e+000
      outer loop
         vertex 6.250000e+001 0.000000e+000 6.250000e+001
         vertex 1.026742e+002 0.000000e+000 1.103778e+002
         vertex 9.375000e+001 0.000000e+000 1.166266e+002
      endloop
   endfacet
   facet normal 0.000000e+000 -1.000000e+000 0.000000e+000
      outer loop
         vertex 6.250000e+001 0.000000e+000 6.250000e+001
         vertex 9.375000e+001 0.000000e+000 1.166266e+002
         vertex 8.387626e+001 0.000000e+000 1.212308e+002
      endloop
   endfacet
   facet normal 0.000000e+000 -1.000000e+000 0.000000e+000
      outer loop
         vertex 1.240505e+002 0.000000e+000 7.335300e+001
         vertex 1.212308e+002 0.000000e+000 8.387626e+001
         vertex 6.250000e+001 0.000000e+000 6.250000e+001
      endloop
   endfacet
   facet normal 0.000000e+000 -1.000000e+000 0.000000e+000
      outer loop
         vertex 6.250000e+001 0.000000e+000 6.250000e+001
         vertex 1.212308e+002 0.000000e+000 8.387626e+001
         vertex 1.166266e+002 0.000000e+000 9.375000e+001
      endloop
   endfacet
   facet normal 0.000000e+000 -1.000000e+000 0.000000e+000
      outer loop
         vertex 6.250000e+001 0.000000e+000 6.250000e+001
         vertex 1.166266e+002 0.000000e+000 9.375000e+001
         vertex 1.103778e+002 0.000000e+000 1.026742e+002
      endloop
   endfacet
   facet normal 0.000000e+000 -1.000000e+000 0.000000e+000
      outer loop
         vertex 1.212308e+002 0.000000e+000 4.112374e+001
         vertex 1.240505e+002 0.000000e+000 5.164699e+001
         vertex 6.250000e+001 0.000000e+000 6.250000e+001
      endloop
   endfacet
   facet normal 0.000000e+000 -1.000000e+000 0.000000e+000
      outer loop
         vertex 6.250000e+001 0.000000e+000 6.250000e+001
         vertex 1.240505e+002 0.000000e+000 5.164699e+001
         vertex 1.250000e+002 0.000000e+000 6.250000e+001
      endloop
   endfacet
   facet normal 0.000000e+000 -1.000000e+000 0.000000e+000
      outer loop
         vertex 6.250000e+001 0.000000e+000 6.250000e+001
         vertex 1.250000e+002 0.000000e+000 6.250000e+001
         vertex 1.240505e+002 0.000000e+000 7.335300e+001
      endloop
   endfacet
   facet normal 0.000000e+000 -1.000000e+000 0.000000e+000
      outer loop
         vertex 1.026742e+002 0.000000e+000 1.462222e+001
         vertex 1.103778e+002 0.000000e+000 2.232577e+001
         vertex 6.250000e+001 0.000000e+000 6.250000e+001
      endloop
   endfacet
   facet normal 0.000000e+000 -1.000000e+000 0.000000e+000
      outer loop
         vertex 6.250000e+001 0.000000e+000 6.250000e+001
         vertex 1.103778e+002 0.000000e+000 2.232577e+001
         vertex 1.166266e+002 0.000000e+000 3.125000e+001
      endloop
   endfacet
   facet normal 0.000000e+000 -1.000000e+000 0.000000e+000
      outer loop
         vertex 6.250000e+001 0.000000e+000 6.250000e+001
         vertex 1.166266e+002 0.000000e+000 3.125000e+001
         vertex 1.212308e+002 0.000000e+000 4.112374e+001
      endloop
   endfacet
   facet normal 0.000000e+000 -1.000000e+000 0.000000e+000
      outer loop
         vertex 7.335300e+001 0.000000e+000 9.495169e-001
         vertex 8.387626e+001 0.000000e+000 3.769212e+000
         vertex 6.250000e+001 0.000000e+000 6.250000e+001
      endloop
   endfacet
   facet normal 0.000000e+000 -1.000000e+000 0.000000e+000
      outer loop
         vertex 6.250000e+001 0.000000e+000 6.250000e+001
         vertex 8.387626e+001 0.000000e+000 3.769212e+000
         vertex 9.375000e+001 0.000000e+000 8.373413e+000
      endloop
   endfacet
   facet normal 0.000000e+000 -1.000000e+000 0.000000e+000
      outer loop
         vertex 6.250000e+001 0.000000e+000 6.250000e+001
         vertex 9.375000e+001 0.000000e+000 8.373413e+000
         vertex 1.026742e+002 0.000000e+000 1.462222e+001
      endloop
   endfacet
   facet normal 0.000000e+000 -1.000000e+000 0.000000e+000
      outer loop
         vertex 4.112374e+001 0.000000e+000 3.769212e+000
         vertex 5.164699e+001 0.000000e+000 9.495169e-001
         vertex 6.250000e+001 0.000000e+000 6.250000e+001
      endloop
   endfacet
   facet normal 0.000000e+000 -1.000000e+000 0.000000e+000
      outer loop
         vertex 6.250000e+001 0.000000e+000 6.250000e+001
         vertex 5.164699e+001 0.000000e+000 9.495169e-001
         vertex 6.250000e+001 0.000000e+000 -6.938894e-015
      endloop
   endfacet
   facet normal 0.000000e+000 -1.000000e+000 0.000000e+000
      outer loop
         vertex 6.250000e+001 0.000000e+000 6.250000e+001
         vertex 6.250000e+001 0.000000e+000 -6.938894e-015
         vertex 7.335300e+001 0.000000e+000 9.495169e-001
      endloop
   endfacet
   facet normal 0.000000e+000 -1.000000e+000 0.000000e+000
      outer loop
         vertex 1.462222e+001 0.000000e+000 2.232577e+001
         vertex 2.232577e+001 0.000000e+000 1.462222e+001
         vertex 6.250000e+001 0.000000e+000 6.250000e+001
      endloop
   endfacet
   facet normal 0.000000e+000 -1.000000e+000 0.000000e+000
      outer loop
         vertex 6.250000e+001 0.000000e+000 6.250000e+001
         vertex 2.232577e+001 0.000000e+000 1.462222e+001
         vertex 3.125000e+001 0.000000e+000 8.373413e+000
      endloop
   endfacet
   facet normal 0.000000e+000 -1.000000e+000 0.000000e+000
      outer loop
         vertex 6.250000e+001 0.000000e+000 6.250000e+001
         vertex 3.125000e+001 0.000000e+000 8.373413e+000
         vertex 4.112374e+001 0.000000e+000 3.769212e+000
      endloop
   endfacet
   facet normal 0.000000e+000 -1.000000e+000 0.000000e+000
      outer loop
         vertex 9.495169e-001 0.000000e+000 5.164699e+001
         vertex 3.769212e+000 0.000000e+000 4.112374e+001
         vertex 6.250000e+001 0.000000e+000 6.250000e+001
      endloop
   endfacet
   facet normal 0.000000e+000 -1.000000e+000 0.000000e+000
      outer loop
         vertex 6.250000e+001 0.000000e+000 6.250000e+001
         vertex 3.769212e+000 0.000000e+000 4.112374e+001
         vertex 8.373413e+000 0.000000e+000 3.125000e+001
      endloop
   endfacet
   facet normal 0.000000e+000 -1.000000e+000 0.000000e+000
      outer loop
         vertex 6.250000e+001 0.000000e+000 6.250000e+001
         vertex 8.373413e+000 0.000000e+000 3.125000e+001
         vertex 1.462222e+001 0.000000e+000 2.232577e+001
      endloop
   endfacet
   facet normal 0.000000e+000 -1.000000e+000 0.000000e+000
      outer loop
         vertex 3.769212e+000 0.000000e+000 8.387626e+001
         vertex 9.495169e-001 0.000000e+000 7.335300e+001
         vertex 6.250000e+001 0.000000e+000 6.250000e+001
      endloop
   endfacet
   facet normal 0.000000e+000 -1.000000e+000 0.000000e+000
      outer loop
         vertex 6.250000e+001 0.000000e+000 6.250000e+001
         vertex 9.495169e-001 0.000000e+000 7.335300e+001
         vertex 0.000000e+000 0.000000e+000 6.250000e+001
      endloop
   endfacet
   facet normal 0.000000e+000 -1.000000e+000 0.000000e+000
      outer loop
         vertex 6.250000e+001 0.000000e+000 6.250000e+001
         vertex 0.000000e+000 0.000000e+000 6.250000e+001
         vertex 9.495169e-001 0.000000e+000 5.164699e+001
      endloop
   endfacet
   facet normal 0.000000e+000 -1.000000e+000 0.000000e+000
      outer loop
         vertex 2.232577e+001 0.000000e+000 1.103778e+002
         vertex 1.462222e+001 0.000000e+000 1.026742e+002
         vertex 6.250000e+001 0.000000e+000 6.250000e+001
      endloop
   endfacet
   facet normal 0.000000e+000 -1.000000e+000 0.000000e+000
      outer loop
         vertex 6.250000e+001 0.000000e+000 6.250000e+001
         vertex 1.462222e+001 0.000000e+000 1.026742e+002
         vertex 8.373413e+000 0.000000e+000 9.375000e+001
      endloop
   endfacet
   facet normal 0.000000e+000 -1.000000e+000 0.000000e+000
      outer loop
         vertex 6.250000e+001 0.000000e+000 6.250000e+001
         vertex 8.373413e+000 0.000000e+000 9.375000e+001
         vertex 3.769212e+000 0.000000e+000 8.387626e+001
      endloop
   endfacet
   facet normal 0.000000e+000 -1.000000e+000 0.000000e+000
      outer loop
         vertex 5.164699e+001 0.000000e+000 1.240505e+002
         vertex 4.112374e+001 0.000000e+000 1.212308e+002
         vertex 6.250000e+001 0.000000e+000 6.250000e+001
      endloop
   endfacet
   facet normal 0.000000e+000 -1.000000e+000 0.000000e+000
      outer loop
         vertex 6.250000e+001 0.000000e+000 6.250000e+001
         vertex 4.112374e+001 0.000000e+000 1.212308e+002
         vertex 3.125000e+001 0.000000e+000 1.166266e+002
      endloop
   endfacet
   facet normal 0.000000e+000 -1.000000e+000 0.000000e+000
      outer loop
         vertex 6.250000e+001 0.000000e+000 6.250000e+001
         vertex 3.125000e+001 0.000000e+000 1.166266e+002
         vertex 2.232577e+001 0.000000e+000 1.103778e+002
      endloop
   endfacet
   facet normal 0.000000e+000 1.000000e+000 0.000000e+000
      outer loop
         vertex 4.112374e+001 7.500000e+002 1.212308e+002
         vertex 5.164699e+001 7.500000e+002 1.240505e+002
         vertex 6.250000e+001 7.500000e+002 6.250000e+001
      endloop
   endfacet
   facet normal 0.000000e+000 1.000000e+000 0.000000e+000
      outer loop
         vertex 6.250000e+001 7.500000e+002 6.250000e+001
         vertex 5.164699e+001 7.500000e+002 1.240505e+002
         vertex 6.250000e+001 7.500000e+002 1.250000e+002
      endloop
   endfacet
   facet normal 0.000000e+000 1.000000e+000 0.000000e+000
      outer loop
         vertex 6.250000e+001 7.500000e+002 6.250000e+001
         vertex 6.250000e+001 7.500000e+002 1.250000e+002
         vertex 7.335300e+001 7.500000e+002 1.240505e+002
      endloop
   endfacet
   facet normal 0.000000e+000 1.000000e+000 0.000000e+000
      outer loop
         vertex 1.462222e+001 7.500000e+002 1.026742e+002
         vertex 2.232577e+001 7.500000e+002 1.103778e+002
         vertex 6.250000e+001 7.500000e+002 6.250000e+001
      endloop
   endfacet
   facet normal 0.000000e+000 1.000000e+000 0.000000e+000
      outer loop
         vertex 6.250000e+001 7.500000e+002 6.250000e+001
         vertex 2.232577e+001 7.500000e+002 1.103778e+002
         vertex 3.125000e+001 7.500000e+002 1.166266e+002
      endloop
   endfacet
   facet normal 0.000000e+000 1.000000e+000 0.000000e+000
      outer loop
         vertex 6.250000e+001 7.500000e+002 6.250000e+001
         vertex 3.125000e+001 7.500000e+002 1.166266e+002
         vertex 4.112374e+001 7.500000e+002 1.212308e+002
      endloop
   endfacet
   facet normal 0.000000e+000 1.000000e+000 0.000000e+000
      outer loop
         vertex 9.495169e-001 7.500000e+002 7.335300e+001
         vertex 3.769212e+000 7.500000e+002 8.387626e+001
         vertex 6.250000e+001 7.500000e+002 6.250000e+001
      endloop
   endfacet
   facet normal 0.000000e+000 1.000000e+000 0.000000e+000
      outer loop
         vertex 6.250000e+001 7.500000e+002 6.250000e+001
         vertex 3.769212e+000 7.500000e+002 8.387626e+001
         vertex 8.373413e+000 7.500000e+002 9.375000e+001
      endloop
   endfacet
   facet normal 0.000000e+000 1.000000e+000 0.000000e+000
      outer loop
         vertex 6.250000e+001 7.500000e+002 6.250000e+001
         vertex 8.373413e+000 7.500000e+002 9.375000e+001
         vertex 1.462222e+001 7.500000e+002 1.026742e+002
      endloop
   endfacet
   facet normal 0.000000e+000 1.000000e+000 0.000000e+000
      outer loop
         vertex 3.769212e+000 7.500000e+002 4.112374e+001
         vertex 9.495169e-001 7.500000e+002 5.164699e+001
         vertex 6.250000e+001 7.500000e+002 6.250000e+001
      endloop
   endfacet
   facet normal 0.000000e+000 1.000000e+000 0.000000e+000
      outer loop
         vertex 6.250000e+001 7.500000e+002 6.250000e+001
         vertex 9.495169e-001 7.500000e+002 5.164699e+001
         vertex 0.000000e+000 7.500000e+002 6.250000e+001
      endloop
   endfacet
   facet normal 0.000000e+000 1.000000e+000 0.000000e+000
      outer loop
         vertex 6.250000e+001 7.500000e+002 6.250000e+001
         vertex 0.000000e+000 7.500000e+002 6.250000e+001
         vertex 9.495169e-001 7.500000e+002 7.335300e+001
      endloop
   endfacet
   facet normal 0.000000e+000 1.000000e+000 0.000000e+000
      outer loop
         vertex 2.232577e+001 7.500000e+002 1.462222e+001
         vertex 1.462222e+001 7.500000e+002 2.232577e+001
         vertex 6.250000e+001 7.500000e+002 6.250000e+001
      endloop
   endfacet
   facet normal 0.000000e+000 1.000000e+000 0.000000e+000
      outer loop
         vertex 6.250000e+001 7.500000e+002 6.250000e+001
         vertex 1.462222e+001 7.500000e+002 2.232577e+001
         vertex 8.373413e+000 7.500000e+002 3.125000e+001
      endloop
   endfacet
   facet normal 0.000000e+000 1.000000e+000 0.000000e+000
      outer loop
         vertex 6.250000e+001 7.500000e+002 6.250000e+001
         vertex 8.373413e+000 7.500000e+002 3.125000e+001
         vertex 3.769212e+000 7.500000e+002 4.112374e+001
      endloop
   endfacet
   facet normal 0.000000e+000 1.000000e+000 0.000000e+000
      outer loop
         vertex 5.164699e+001 7.500000e+002 9.495169e-001
         vertex 4.112374e+001 7.500000e+002 3.769212e+000
         vertex 6.250000e+001 7.500000e+002 6.250000e+001
      endloop
   endfacet
   facet normal 0.000000e+000 1.000000e+000 0.000000e+000
      outer loop
         vertex 6.250000e+001 7.500000e+002 6.250000e+001
         vertex 4.112374e+001 7.500000e+002 3.769212e+000
         vertex 3.125000e+001 7.500000e+002 8.373413e+000
      endloop
   endfacet
   facet normal 0.000000e+000 1.000000e+000 0.000000e+000
      outer loop
         vertex 6.250000e+001 7.500000e+002 6.250000e+001
         vertex 3.125000e+001 7.500000e+002 8.373413e+000
         vertex 2.232577e+001 7.500000e+002 1.462222e+001
      endloop
   endfacet
   facet normal 0.000000e+000 1.000000e+000 0.000000e+000
      outer loop
         vertex 8.387626e+001 7.500000e+002 3.769212e+000
         vertex 7.335300e+001 7.500000e+002 9.495169e-001
         vertex 6.250000e+001 7.500000e+002 6.250000e+001
      endloop
   endfacet
   facet normal 0.000000e+000 1.000000e+000 0.000000e+000
      outer loop
         vertex 6.250000e+001 7.500000e+002 6.250000e+001
         vertex 7.335300e+001 7.500000e+002 9.495169e-001
         vertex 6.250000e+001 7.500000e+002 -6.938894e-015
      endloop
   endfacet
   facet normal 0.000000e+000 1.000000e+000 0.000000e+000
      outer loop
         vertex 6.250000e+001 7.500000e+002 6.250000e+001
         vertex 6.250000e+001 7.500000e+002 -6.938894e-015
         vertex 5.164699e+001 7.500000e+002 9.495169e-001
      endloop
   endfacet
   facet normal 0.000000e+000 1.000000e+000 0.000000e+000
      outer loop
         vertex 1.103778e+002 7.500000e+002 2.232577e+001
         vertex 1.026742e+002 7.500000e+002 1.462222e+001
         vertex 6.250000e+001 7.500000e+002 6.250000e+001
      endloop
   endfacet
   facet normal 0.000000e+000 1.000000e+000 0.000000e+000
      outer loop
         vertex 6.250000e+001 7.500000e+002 6.250000e+001
         vertex 1.026742e+002 7.500000e+002 1.462222e+001
         vertex 9.375000e+001 7.500000e+002 8.373413e+000
      endloop
   endfacet
   facet normal 0.000000e+000 1.000000e+000 0.000000e+000
      outer loop
         vertex 6.250000e+001 7.500000e+002 6.250000e+001
         vertex 9.375000e+001 7.500000e+002 8.373413e+000
         vertex 8.387626e+001 7.500000e+002 3.769212e+000
      endloop
   endfacet
   facet normal 0.000000e+000 1.000000e+000 0.000000e+000
      outer loop
         vertex 1.240505e+002 7.500000e+002 5.164699e+001
         vertex 1.212308e+002 7.500000e+002 4.112374e+001
         vertex 6.250000e+001 7.500000e+002 6.250000e+001
      endloop
   endfacet
   facet normal 0.000000e+000 1.000000e+000 0.000000e+000
      outer loop
         vertex 6.250000e+001 7.500000e+002 6.250000e+001
         vertex 1.212308e+002 7.500000e+002 4.112374e+001
         vertex 1.166266e+002 7.500000e+002 3.125000e+001
      endloop
   endfacet
   facet normal 0.000000e+000 1.000000e+000 0.000000e+000
      outer loop
         vertex 6.250000e+001 7.500000e+002 6.250000e+001
         vertex 1.166266e+002 7.500000e+002 3.125000e+001
         vertex 1.103778e+002 7.500000e+002 2.232577e+001
      endloop
   endfacet
   facet normal 0.000000e+000 1.000000e+000 0.000000e+000
      outer loop
         vertex 1.212308e+002 7.500000e+002 8.387626e+001
         vertex 1.240505e+002 7.500000e+002 7.335300e+001
         vertex 6.250000e+001 7.500000e+002 6.250000e+001
      endloop
   endfacet
   facet normal 0.000000e+000 1.000000e+000 0.000000e+000
      outer loop
         vertex 6.250000e+001 7.500000e+002 6.250000e+001
         vertex 1.240505e+002 7.500000e+002 7.335300e+001
         vertex 1.250000e+002 7.500000e+002 6.250000e+001
      endloop
   endfacet
   facet normal 0.000000e+000 1.000000e+000 0.000000e+000
      outer loop
         vertex 6.250000e+001 7.500000e+002 6.250000e+001
         vertex 1.250000e+002 7.500000e+002 6.250000e+001
         vertex 1.240505e+002 7.500000e+002 5.164699e+001
      endloop
   endfacet
   facet normal 0.000000e+000 1.000000e+000 0.000000e+000
      outer loop
         vertex 1.026742e+002 7.500000e+002 1.103778e+002
         vertex 1.103778e+002 7.500000e+002 1.026742e+002
         vertex 6.250000e+001 7.500000e+002 6.250000e+001
      endloop
   endfacet
   facet normal 0.000000e+000 1.000000e+000 0.000000e+000
      outer loop
         vertex 6.250000e+001 7.500000e+002 6.250000e+001
         vertex 1.103778e+002 7.500000e+002 1.026742e+002
         vertex 1.166266e+002 7.500000e+002 9.375000e+001
      endloop
   endfacet
   facet normal 0.000000e+000 1.000000e+000 0.000000e+000
      outer loop
         vertex 6.250000e+001 7.500000e+002 6.250000e+001
         vertex 1.166266e+002 7.500000e+002 9.375000e+001
         vertex 1.212308e+002 7.500000e+002 8.387626e+001
      endloop
   endfacet
   facet normal 0.000000e+000 1.000000e+000 0.000000e+000
      outer loop
         vertex 7.335300e+001 7.500000e+002 1.240505e+002
         vertex 8.387626e+001 7.500000e+002 1.212308e+002
         vertex 6.250000e+001 7.500000e+002 6.250000e+001
      endloop
   endfacet
   facet normal 0.000000e+000 1.000000e+000 0.000000e+000
      outer loop
         vertex 6.250000e+001 7.500000e+002 6.250000e+001
         vertex 8.387626e+001 7.500000e+002 1.212308e+002
         vertex 9.375000e+001 7.500000e+002 1.166266e+002
      endloop
   endfacet
   facet normal 0.000000e+000 1.000000e+000 0.000000e+000
      outer loop
         vertex 6.250000e+001 7.500000e+002 6.250000e+001
         vertex 9.375000e+001 7.500000e+002 1.166266e+002
         vertex 1.026742e+002 7.500000e+002 1.103778e+002
      endloop
   endfacet
endsolid